PathFileType	4	(X/Y/Z)	/Users/itak/Documents/Research/Walk-IL/dataset/trc/00178_00008.trc
DataRate	CameraRate	NumFrames	NumMarkers	Units	OrigDataRate	OrigDataStartFrame	OrigNumFrames
100.000000	100.000000	4	53	mm	100.000000	317	846
Frame#	Time	RPSI			LPSI			L3			STRN			T10			C7			CLAV			RBAK			LBAK			LSHO			LUPA			LAEL			LAOL			LWTS			LWPS			LFRA			LIFD			LHPS			LHTS			RSHO			RUPA			RAEL			RAOL			RWTS			RWPS			RFRA			RIFD			RHTS			RHPS			RBHD			LFHD			RFHD			LBHD			LHIP			RHIP			RASI			LASI			LKNE			LTHI			LANK			LTIP			LTOE			LMT1			LMT5			LHEE			RKNE			RTHI			RANK			RTIP			RTOE			RMT1			RMT5			RHEE			
		X1	Y1	Z1	X2	Y2	Z2	X3	Y3	Z3	X4	Y4	Z4	X5	Y5	Z5	X6	Y6	Z6	X7	Y7	Z7	X8	Y8	Z8	X9	Y9	Z9	X10	Y10	Z10	X11	Y11	Z11	X12	Y12	Z12	X13	Y13	Z13	X14	Y14	Z14	X15	Y15	Z15	X16	Y16	Z16	X17	Y17	Z17	X18	Y18	Z18	X19	Y19	Z19	X20	Y20	Z20	X21	Y21	Z21	X22	Y22	Z22	X23	Y23	Z23	X24	Y24	Z24	X25	Y25	Z25	X26	Y26	Z26	X27	Y27	Z27	X28	Y28	Z28	X29	Y29	Z29	X30	Y30	Z30	X31	Y31	Z31	X32	Y32	Z32	X33	Y33	Z33	X34	Y34	Z34	X35	Y35	Z35	X36	Y36	Z36	X37	Y37	Z37	X38	Y38	Z38	X39	Y39	Z39	X40	Y40	Z40	X41	Y41	Z41	X42	Y42	Z42	X43	Y43	Z43	X44	Y44	Z44	X45	Y45	Z45	X46	Y46	Z46	X47	Y47	Z47	X48	Y48	Z48	X49	Y49	Z49	X50	Y50	Z50	X51	Y51	Z51	X52	Y52	Z52	X53	Y53	Z53	

318	3.17	1083.719604492188	1011.525024414062	-134.7923583984375	981.1396484375	1009.019775390625	-66.6314697265625	1030.743896484375	1049.567138671875	-100.2025909423828	877.4097900390625	1247.48974609375	-328.0899963378906	1023.304138183594	1216.1103515625	-62.35177612304688	952.6691284179688	1475.670776367188	-126.1445617675781	872.4027099609375	1363.554565429688	-304.9235229492188	1097.959228515625	1314.92529296875	-111.9419860839844	867.2175903320312	1446.893920898438	-72.63372802734375	766.7797241210938	1429.486572265625	-104.1411361694336	717.1259155273438	1289.7265625	-60.19763946533203	691.9732055664062	1074.152587890625	-113.7397003173828	775.0704956054688	1051.076171875	-94.08447265625	680.4263916015625	924.2833862304688	-323.6563110351562	667.1392211914062	860.8276977539062	-256.9423522949219	672.241455078125	976.1083984375	-170.3674774169922	691.1795654296875	781.3372802734375	-434.6130065917969	660.5146484375	812.55224609375	-312.2054443359375	653.0234985351562	860.6740112304688	-366.9295043945312	1084.312622070312	1462.887084960938	-264.6799621582031	1160.76416015625	1404.882568359375	-278.1469116210938	1251.04443359375	1125.701293945312	-293.0667724609375	1167.144165039062	1107.30419921875	-245.8648986816406	1188.236328125	908.6050415039062	-435.5989990234375	1260.30322265625	889.2633666992188	-387.5326538085938	1261.325073242188	1056.172607421875	-329.7680969238281	1168.298950195312	720.683349609375	-464.8551025390625	1188.856079101562	818.0975341796875	-473.5140991210938	1249.286743164062	809.4495239257812	-421.3622741699219	973.1787719726562	1639.358276367188	-239.32177734375	763.4042358398438	1653.48046875	-295.8078002929688	865.060302734375	1664.3564453125	-374.2203369140625	869.9217529296875	1635.832641601562	-149.6624450683594	829.6234130859375	936.6194458007812	-90.89532470703125	1102.292846679688	982.9728393554688	-337.9404907226562	1010.959838867188	1009.280151367188	-370.4489440917969	796.0391235351562	981.49755859375	-225.8053436279297	958.5877685546875	455.4298400878906	-154.9709014892578	896.37939453125	591.025146484375	-138.8172149658203	1132.014282226562	37.01179122924805	-53.33946228027344	1034.845336914062	240.7851409912109	-106.5925445556641	1072.583740234375	34.09834289550781	-266.1078186035156	1136.846557617188	33.53627014160156	-236.784423828125	1054.744018554688	34.24602127075195	-139.8083038330078	1214.17236328125	43.81525802612305	-31.00253105163574	994.55859375	527.3023681640625	-513.9985961914062	1055.3818359375	782.0196533203125	-449.2081298828125	939.8240966796875	45.85721969604492	-645.6290893554688	955.6025390625	425.1822814941406	-555.3623046875	789.0782470703125	150.6879425048828	-764.0900268554688	786.2460327148438	130.0866241455078	-696.6976928710938	889.3115234375	81.89527893066406	-743.7694091796875	922.7792358398438	29.97061920166016	-562.884521484375	
319	3.18	1078.926879882812	1009.422973632812	-145.7149047851562	977.1692504882812	1007.235778808594	-75.91320037841797	1026.432373046875	1047.605102539062	-109.974250793457	870.9906005859375	1245.6044921875	-336.6434326171875	1019.341552734375	1213.966430664062	-72.00031280517578	947.8907470703125	1473.734008789062	-135.0646209716797	866.1353149414062	1361.578002929688	-313.3642883300781	1093.420654296875	1312.952758789062	-122.1025466918945	862.894287109375	1444.86083984375	-80.85531616210938	762.095458984375	1427.357177734375	-111.06982421875	713.4794921875	1287.127197265625	-66.7818603515625	688.7892456054688	1071.2353515625	-119.5432968139648	772.2305908203125	1048.623657226562	-100.7664108276367	676.3468017578125	922.0524291992188	-329.9694519042969	663.6597900390625	858.268798828125	-263.3755187988281	669.0540771484375	973.2118530273438	-176.3269500732422	687.0567626953125	779.6983032226562	-441.5509643554688	656.8931274414062	810.1964721679688	-318.8064880371094	648.8952026367188	858.5582275390625	-373.3312377929688	1078.461791992188	1460.956665039062	-274.684326171875	1154.84619140625	1402.953735351562	-288.6142883300781	1245.474365234375	1124.026611328125	-303.6549682617188	1161.807250976562	1105.42919921875	-256.0316467285156	1183.454711914062	906.3575439453125	-445.6545104980469	1255.574829101562	887.451904296875	-397.4833374023438	1255.94921875	1054.500854492188	-340.247314453125	1164.505004882812	718.258544921875	-474.4749755859375	1184.526245117188	815.7471923828125	-483.3494873046875	1244.984619140625	807.5439453125	-431.1266479492188	967.5183715820312	1637.3935546875	-248.3306121826172	757.3298950195312	1651.586303710938	-303.2520141601562	858.3564453125	1662.390502929688	-382.3812255859375	864.9482421875	1633.870239257812	-157.8612213134766	825.3816528320312	935.1644897460938	-98.95793914794922	1095.799194335938	980.5869750976562	-348.5886840820312	1004.227722167969	1007.089599609375	-380.3142395019531	790.6205444335938	979.6180419921875	-233.5862121582031	955.80712890625	454.5511169433594	-159.2491607666016	893.0285034179688	589.97998046875	-144.0576629638672	1132.521362304688	37.90853118896484	-53.75225067138672	1033.722290039062	240.9415283203125	-108.7006225585938	1072.530029296875	33.98397064208984	-266.1828918457031	1136.7626953125	33.58187103271484	-237.0337829589844	1054.9541015625	34.27063369750977	-139.8332977294922	1214.690063476562	45.74971389770508	-31.68379211425781	983.5274658203125	526.080810546875	-523.481689453125	1048.410034179688	779.6254272460938	-459.5667114257812	918.6264038085938	47.63010787963867	-661.0894165039062	942.1270751953125	425.5929870605469	-565.2108764648438	766.1981811523438	156.1825256347656	-773.7115478515625	764.9388427734375	134.7342224121094	-706.5885620117188	865.8648681640625	85.85002899169922	-757.4134521484375	903.3977661132812	30.81401062011719	-577.7477416992188	
320	3.19	1073.904174804688	1007.473083496094	-156.6451568603516	972.9689331054688	1005.557739257812	-85.29061889648438	1021.844543457031	1045.822875976562	-119.8351745605469	864.4752197265625	1243.819946289062	-345.315673828125	1015.103515625	1211.880737304688	-81.76500701904297	942.92333984375	1471.91015625	-144.0562438964844	859.7817993164062	1359.711547851562	-321.918212890625	1088.664428710938	1311.0732421875	-132.2683410644531	858.3967895507812	1442.964721679688	-89.21535491943359	757.1807250976562	1425.241088867188	-118.3379211425781	709.695556640625	1284.593139648438	-73.49880981445312	685.5567626953125	1068.326293945312	-125.2023544311523	769.3609008789062	1046.259033203125	-107.3505172729492	672.2149047851562	919.4202880859375	-335.8580932617188	660.2357177734375	855.4176025390625	-269.2542419433594	665.8565673828125	970.2133178710938	-181.9553985595703	682.872314453125	777.4912719726562	-447.8252258300781	653.3287963867188	807.4581298828125	-324.7536926269531	644.711181640625	855.9530639648438	-379.1532287597656	1072.520385742188	1459.134765625	-284.6822814941406	1148.826904296875	1401.11474609375	-299.0193481445312	1239.720947265625	1122.390258789062	-314.111572265625	1156.240966796875	1103.634765625	-266.1575927734375	1178.58251953125	904.2246704101562	-455.6884765625	1250.64306640625	885.6838989257812	-407.2908325195312	1250.402587890625	1052.875610351562	-350.5840454101562	1160.48583984375	715.9655151367188	-484.1416625976562	1180.08056640625	813.5157470703125	-493.1707153320312	1240.458251953125	805.6846313476562	-440.7674865722656	961.7257690429688	1635.59033203125	-257.369384765625	751.11767578125	1649.821533203125	-310.7142028808594	851.5198364257812	1660.596801757812	-390.5655822753906	859.84130859375	1632.01416015625	-166.0991973876953	820.9642333984375	933.8118896484375	-107.1897201538086	1089.22216796875	978.3873901367188	-359.2886352539062	997.380615234375	1005.009887695312	-390.2216491699219	785.3607177734375	977.6573486328125	-241.4855041503906	952.7887573242188	453.8201904296875	-163.6157989501953	889.5211181640625	589.0797119140625	-149.3809356689453	1132.891723632812	38.98623275756836	-54.1433219909668	1032.404296875	241.2882385253906	-110.8488311767578	1072.509765625	33.87922668457031	-266.2424621582031	1136.642944335938	33.66373443603516	-237.2411346435547	1055.111083984375	34.26177215576172	-139.8329315185547	1215.023803710938	48.02205276489258	-32.33102035522461	972.2644653320312	525.0059204101562	-532.9478149414062	1041.203125	777.431640625	-470.0466918945312	898.8621215820312	48.90671157836914	-674.2600708007812	928.8137817382812	425.7025756835938	-574.799560546875	745.195556640625	160.4172668457031	-782.0060424804688	745.2003173828125	138.3022003173828	-715.1323852539062	844.1414184570312	88.83284759521484	-769.1140747070312	885.1329345703125	31.31742477416992	-590.4315185546875	
321	3.2	1068.664794921875	1005.707092285156	-167.5540161132812	968.5419311523438	1004.041076660156	-94.770751953125	1016.9609375	1044.258422851562	-129.8074645996094	857.858154296875	1242.178100585938	-354.1119384765625	1010.572570800781	1209.912719726562	-91.64884185791016	937.7723388671875	1470.227905273438	-153.1204681396484	853.3381958007812	1358.001342773438	-330.5865173339844	1083.68798828125	1309.310546875	-142.4564361572266	853.734375	1441.251708984375	-97.71487426757812	752.0565795898438	1423.203247070312	-125.9238967895508	705.7608032226562	1282.185913085938	-80.35233306884766	682.2659912109375	1065.492919921875	-130.7540893554688	766.4443969726562	1044.0546875	-113.8684387207031	668.0337524414062	916.3916625976562	-341.3127746582031	656.8704833984375	852.3045043945312	-274.5570678710938	662.6441040039062	967.1700439453125	-187.2613220214844	678.6351318359375	774.6904907226562	-453.3895263671875	649.8215942382812	804.349609375	-330.0143432617188	640.47705078125	852.8512573242188	-384.3639526367188	1066.484741210938	1457.4560546875	-294.6810302734375	1142.702758789062	1399.406372070312	-309.3812255859375	1233.771850585938	1120.833862304688	-324.4661560058594	1150.427856445312	1101.954711914062	-276.2877502441406	1173.583984375	902.2276611328125	-465.694580078125	1245.494140625	883.999755859375	-416.9721374511719	1244.669189453125	1051.340209960938	-360.808349609375	1156.2333984375	713.8165893554688	-493.8138122558594	1175.495727539062	811.423828125	-502.9645080566406	1235.701171875	803.9086303710938	-450.2870788574219	955.7958984375	1633.975708007812	-266.4443054199219	744.765380859375	1648.212280273438	-318.1953430175781	844.541259765625	1659.002197265625	-398.7785949707031	854.5985717773438	1630.300048828125	-174.3759002685547	816.3780517578125	932.5997314453125	-115.5800857543945	1082.5322265625	976.4113159179688	-370.046142578125	990.377197265625	1003.064453125	-400.1707763671875	780.291015625	975.6100463867188	-249.4828643798828	949.482666015625	453.2398071289062	-168.114013671875	885.8173828125	588.3347778320312	-154.8165588378906	1133.073974609375	40.26301574707031	-54.50982284545898	1030.848266601562	241.8360290527344	-113.0581283569336	1072.514038085938	33.78116226196289	-266.2887573242188	1136.47607421875	33.78236389160156	-237.3968963623047	1055.194458007812	34.22226333618164	-139.818603515625	1215.13134765625	50.66247177124023	-32.92996215820312	960.8269653320312	524.063720703125	-542.38427734375	1033.673828125	775.5210571289062	-480.6511840820312	880.5883178710938	49.46026229858398	-685.1362915039062	915.7141723632812	425.4656372070312	-584.1316528320312	726.043212890625	163.1858520507812	-789.0293579101562	727.0254516601562	140.6238250732422	-722.3619384765625	824.1593017578125	90.56574249267578	-778.8887329101562	868.11474609375	31.37708854675293	-600.9447021484375	
